<?xml version="1.0" encoding="utf-8"?>
<!-- Generator: Adobe Illustrator 23.1.1, SVG Export Plug-In . SVG Version: 6.00 Build 0)  -->
<svg version="1.1" id="Layer_1" xmlns="http://www.w3.org/2000/svg" xmlns:xlink="http://www.w3.org/1999/xlink" x="0px" y="0px"
	 viewBox="0 0 99 44" style="enable-background:new 0 0 99 44;" xml:space="preserve">
<style type="text/css">
	.st0{fill:#F15A22;}
</style>
<g>
	<g>
		<path class="st0" d="M40.3,14.9c0-5.3,3.5-9,8.8-9c6.4,0,8.7,4,7.7,9.5H41.7c0.1,4.6,3.2,7.6,8.1,7.5c2.3,0,3.1-0.4,5.1-1.2
			c0.2,0.4,0.3,0.9,0.2,1.3c-1.4,0.5-2.5,0.9-5.3,0.9C43.7,23.9,40.3,20.3,40.3,14.9 M55.6,14.5c0.7-4.4-1.3-7.6-6.5-7.6
			c-4.5,0-7.2,3-7.5,7.6H55.6z"/>
		<path class="st0" d="M34,23.6V7.1L31.3,7c-0.1-0.3-0.1-0.6,0-0.9C32.8,6,33.6,6,35,6.1l0.2,0.2v3.1h0c0.5-1.8,2.2-3.5,4.7-3.5
			c0.6,0,1.3,0.1,1.8,0.2c0.1,0.3,0.1,0.8-0.1,1.1C41.3,7,40.6,6.8,40,6.8c-3.7,0-4.7,3.3-4.7,6.8v10.2c-0.3,0.1-0.6,0.1-1.1,0
			L34,23.6z"/>
		<path class="st0" d="M13.5,23.4V1.1L10.9,1c-0.1-0.3-0.1-0.6,0-1h12.3c3.5,0,6.4,2.1,6.4,6.1c0,2.7-1.6,4.8-4.1,5.5
			c2.6,0.4,4.9,2.5,4.9,6c0,3.8-2.8,6.2-6.4,6.2H13.8L13.5,23.4z M23.3,11.1c3.3,0,5.1-2.1,5.1-4.9c0-3.4-2.5-5.1-5.2-5.1h-8.4v10.1
			H23.3z M23.9,22.7c2.9,0,5.3-2,5.3-5.2c0-2.6-1.6-5.3-5.7-5.3h-8.7v10.5H23.9z"/>
		<path class="st0" d="M14,34.7c0-5.7,3.9-9.1,9-9.1c5.1,0,9,3.5,9,9.1c0,5.6-3.9,9.1-9,9.1C17.9,43.8,14,40.4,14,34.7 M30.6,34.7
			c0-5.1-3.2-8.1-7.6-8.1s-7.6,3-7.6,8.1c0,5.1,3.2,8.1,7.6,8.1S30.6,39.8,30.6,34.7"/>
		<path class="st0" d="M34,43.4V26.9l-2.7-0.1c-0.1-0.3-0.1-0.6,0-0.9c1.5-0.1,2.3-0.1,3.8,0l0.2,0.2v3.1h0c0.5-1.8,2.2-3.5,4.7-3.5
			c0.6,0,1.3,0.1,1.8,0.2c0.1,0.3,0.1,0.8-0.1,1.1c-0.5-0.2-1.1-0.3-1.8-0.3c-3.7,0-4.7,3.3-4.7,6.8v10.2c-0.3,0.1-0.6,0.1-1.1,0
			L34,43.4z"/>
		<path class="st0" d="M40.5,34.8c0-5.2,3.1-9.1,8.8-9.1c3.4,0,5.7,1.4,6.9,2.4l0-8.4l-3.5-0.1c-0.1-0.3-0.1-0.6,0-0.9
			c1.5-0.1,3.1-0.1,4.6,0l0.2,0.2v22.4c0,1.3,0.6,1.6,1.5,1.6c0.6,0,1.3-0.2,2.1-0.3c0.1,0.3,0.1,0.7,0,1c-0.8,0.2-1.5,0.3-2.2,0.3
			c-1.5,0-2.6-0.5-2.6-2.5v-2.6c-1.3,3.6-4,5.1-7.2,5.1C43.7,43.8,40.5,40.1,40.5,34.8 M56.2,33.5v-4.2c-1.2-1-3.3-2.7-6.8-2.7
			c-4.9,0-7.5,3.3-7.5,8.1c0,5.1,3,8.1,7.2,8.1C53.7,42.8,56.2,38.7,56.2,33.5"/>
		<path class="st0" d="M11.8,19.3v-0.5l-0.2-0.2c-1.5-0.1-4.2-0.1-5.7,0c-0.1,0.3-0.1,0.6,0,0.9l4.6,0.1l0,1.1v16.1
			c0,4.4-2.8,5.9-5.8,5.8c-2-0.1-3.4-0.6-4.3-1.1c-0.2,0.2-0.4,0.6-0.3,1c1,0.5,2.6,1.1,4.6,1.1c3.9,0,7.1-2,7.1-7L11.8,19.3
			L11.8,19.3z"/>
		<path class="st0" d="M60.4,38.5c0-4,3.5-5.2,7.5-5.2c2.6,0,4.8,0.5,6.7,1.2v-2.3c0-4.1-2.5-5.6-6-5.6c-2.4,0-4.8,0.5-7.1,1.7
			c-0.3-0.3-0.5-0.7-0.4-1.1c2.5-1.3,5.2-1.6,7.6-1.6c4.6,0,7.2,2,7.2,6.6v8.9c0,1.3,0.6,1.6,1.6,1.6c0.7,0,1.2-0.1,2-0.3
			c0.1,0.3,0.1,0.7,0,1c-0.7,0.2-1.3,0.3-2.1,0.3c-1.8,0-2.7-0.6-2.7-2.5l0-1.8c-1,2.4-3.7,4.3-7.6,4.3
			C63.4,43.8,60.4,42.2,60.4,38.5 M74.6,36.2v-0.6c-1.5-0.6-3.9-1.4-6.7-1.4c-3.2,0-6.2,1-6.2,4.3c0,3.2,2.9,4.3,5.5,4.3
			C71.2,42.8,74.6,40,74.6,36.2"/>
		<path class="st0" d="M94.1,41.2v-8.6c0-3.8-2.1-6-5.4-6c-5.2,0-7,5.7-7,11.7v5.3c-0.3,0.1-0.6,0.1-1.1,0l-0.2-0.2V26.9L77,26.7
			c-0.1-0.3-0.1-0.6,0-0.9c1.5-0.1,3-0.1,4.4,0l0.2,0.2v5.6h0c1-3.4,3.3-6,7.2-6c4.1,0,6.5,2.6,6.5,7v8.5c0,1.3,0.6,1.6,1.5,1.6
			c0.5,0,1.2-0.1,2-0.3c0.1,0.3,0.1,0.7,0,1c-0.8,0.2-1.5,0.3-2.2,0.3C95.2,43.7,94.1,43.2,94.1,41.2"/>
		<path class="st0" d="M59.7,18.7V7.1L56.9,7c-0.1-0.3-0.1-0.6,0-0.9h2.8V1c0.4-0.1,0.8-0.1,1.2,0v5.1h4.9C66,6.4,66,6.7,65.9,7H61
			v11.7c0,2.8,1.1,4.3,3.6,4.3c1.5,0,3.1-0.5,3.7-0.7c0.1,0.3,0.1,0.7,0.1,1.1c-0.5,0.2-2.5,0.6-4,0.6C61,23.9,59.7,22.1,59.7,18.7"
			/>
		<path class="st0" d="M69.5,18.7V7.1L66.6,7c-0.1-0.3-0.1-0.6,0-0.9h2.8V1c0.4-0.1,0.8-0.1,1.2,0v5.1h4.9c0.1,0.3,0.1,0.6,0,0.9
			h-4.9v11.7c0,2.8,1.1,4.3,3.6,4.3c1.5,0,3.1-0.5,3.7-0.7c0.1,0.3,0.1,0.7,0.1,1.1c-0.5,0.2-2.5,0.6-4,0.6
			C70.8,23.9,69.5,22.1,69.5,18.7"/>
	</g>
</g>
</svg>
