<svg xmlns="http://www.w3.org/2000/svg" viewBox="0 0 99 44"><path fill="#f15a22" d="M40.3 14.9c0-5.3 3.5-9 8.8-9 6.4 0 8.7 4 7.7 9.5H41.7c.1 4.6 3.2 7.6 8.1 7.5 2.3 0 3.1-.4 5.1-1.2.2.4.3.9.2 1.3-1.4.5-2.5.9-5.3.9-6.1 0-9.5-3.6-9.5-9m15.3-.4c.7-4.4-1.3-7.6-6.5-7.6-4.5 0-7.2 3-7.5 7.6h14zM34 23.6V7.1L31.3 7v-.9H35l.2.2v3.1a4.8 4.8 0 014.7-3.5l1.8.2c.1.3.1.8-.1 1.1-.3-.2-1-.4-1.6-.4-3.7 0-4.7 3.3-4.7 6.8v10.2a2 2 0 01-1.1 0l-.2-.2zm-20.5-.2V1.1L10.9 1V0h12.3c3.5 0 6.4 2.1 6.4 6.1 0 2.7-1.6 4.8-4.1 5.5 2.6.4 4.9 2.5 4.9 6 0 3.8-2.8 6.2-6.4 6.2H13.8l-.3-.4zm9.8-12.3c3.3 0 5.1-2.1 5.1-4.9 0-3.4-2.5-5.1-5.2-5.1h-8.4v10.1h8.5zm.6 11.6c2.9 0 5.3-2 5.3-5.2 0-2.6-1.6-5.3-5.7-5.3h-8.7v10.5h9.1zm-9.9 12c0-5.7 3.9-9.1 9-9.1s9 3.5 9 9.1-3.9 9.1-9 9.1-9-3.4-9-9.1m16.6 0c0-5.1-3.2-8.1-7.6-8.1s-7.6 3-7.6 8.1 3.2 8.1 7.6 8.1 7.6-3 7.6-8.1m3.4 8.7V26.9l-2.7-.1v-.9h3.8l.2.2v3.1a4.8 4.8 0 014.7-3.5l1.8.2c.1.3.1.8-.1 1.1-.5-.2-1.1-.3-1.8-.3-3.7 0-4.7 3.3-4.7 6.8v10.2a2 2 0 01-1.1 0l-.1-.3zm6.5-8.6c0-5.2 3.1-9.1 8.8-9.1 3.4 0 5.7 1.4 6.9 2.4v-8.4l-3.5-.1v-.9h4.6l.2.2v22.4c0 1.3.6 1.6 1.5 1.6l2.1-.3v1a9 9 0 01-2.2.3c-1.5 0-2.6-.5-2.6-2.5v-2.6a7.2 7.2 0 01-7.2 5.1c-5.4-.1-8.6-3.8-8.6-9.1m15.7-1.3v-4.2a10 10 0 00-6.8-2.7c-4.9 0-7.5 3.3-7.5 8.1 0 5.1 3 8.1 7.2 8.1 4.6 0 7.1-4.1 7.1-9.3M11.8 19.3v-.5l-.2-.2H5.9v.9l4.6.1v17.2c0 4.4-2.8 5.9-5.8 5.8-2-.1-3.4-.6-4.3-1.1-.2.2-.4.6-.3 1 1 .5 2.6 1.1 4.6 1.1 3.9 0 7.1-2 7.1-7V19.3zm48.6 19.2c0-4 3.5-5.2 7.5-5.2 2.6 0 4.8.5 6.7 1.2v-2.3c0-4.1-2.5-5.6-6-5.6-2.4 0-4.8.5-7.1 1.7-.3-.3-.5-.7-.4-1.1 2.5-1.3 5.2-1.6 7.6-1.6 4.6 0 7.2 2 7.2 6.6v8.9c0 1.3.6 1.6 1.6 1.6.7 0 1.2-.1 2-.3v1c-.7.2-1.3.3-2.1.3-1.8 0-2.7-.6-2.7-2.5v-1.8c-1 2.4-3.7 4.3-7.6 4.3-3.7.1-6.7-1.5-6.7-5.2m14.2-2.3v-.6c-1.5-.6-3.9-1.4-6.7-1.4-3.2 0-6.2 1-6.2 4.3 0 3.2 2.9 4.3 5.5 4.3 4 0 7.4-2.8 7.4-6.6m19.5 5v-8.6c0-3.8-2.1-6-5.4-6-5.2 0-7 5.7-7 11.7v5.3a2 2 0 01-1.1 0l-.2-.2V26.9l-3.4-.2v-.9h4.4l.2.2v5.6c1-3.4 3.3-6 7.2-6 4.1 0 6.5 2.6 6.5 7v8.5c0 1.3.6 1.6 1.5 1.6l2-.3v1a9 9 0 01-2.2.3c-1.4 0-2.5-.5-2.5-2.5M59.7 18.7V7.1L56.9 7v-.9h2.8V1h1.2v5.1h4.9c.2.3.2.6.1.9H61v11.7c0 2.8 1.1 4.3 3.6 4.3 1.5 0 3.1-.5 3.7-.7l.1 1.1c-.5.2-2.5.6-4 .6-3.4-.1-4.7-1.9-4.7-5.3m9.8 0V7.1L66.6 7v-.9h2.8V1h1.2v5.1h4.9V7h-4.9v11.7c0 2.8 1.1 4.3 3.6 4.3 1.5 0 3.1-.5 3.7-.7l.1 1.1c-.5.2-2.5.6-4 .6-3.2-.1-4.5-1.9-4.5-5.3" class="st0"/></svg>
